<svg width="133" height="44" viewBox="0 0 133 44" fill="none" xmlns="http://www.w3.org/2000/svg">
<path d="M22.464 33.192C22.584 33.504 22.644 33.792 22.644 34.056C22.644 34.68 22.44 35.196 22.032 35.604C21.624 35.988 21.156 36.18 20.628 36.18C20.196 36.18 19.8 36.048 19.44 35.784C19.104 35.52 18.84 35.16 18.648 34.704L16.776 30.348H6.048L4.176 34.74C4.008 35.196 3.744 35.556 3.384 35.82C3.048 36.06 2.676 36.18 2.268 36.18C1.644 36.18 1.164 36.012 0.828 35.676C0.516 35.34 0.36 34.884 0.36 34.308C0.36 34.092 0.396 33.864 0.468 33.624L9.432 12.096C9.624 11.616 9.912 11.244 10.296 10.98C10.68 10.716 11.112 10.608 11.592 10.656C12.024 10.656 12.42 10.788 12.78 11.052C13.164 11.292 13.44 11.64 13.608 12.096L22.464 33.192ZM15.012 26.208L11.376 17.784L7.812 26.208H15.012ZM35.3042 16.38C36.9602 16.38 38.4602 16.812 39.8042 17.676C41.1482 18.516 42.2042 19.692 42.9722 21.204C43.7642 22.716 44.1602 24.432 44.1602 26.352C44.1602 28.272 43.7762 30 43.0082 31.536C42.2402 33.048 41.1842 34.236 39.8402 35.1C38.5202 35.94 37.0562 36.36 35.4482 36.36C34.2962 36.36 33.2042 36.132 32.1722 35.676C31.1642 35.196 30.3242 34.62 29.6522 33.948V41.004C29.6522 41.628 29.4482 42.144 29.0402 42.552C28.6322 42.984 28.1162 43.2 27.4922 43.2C26.8682 43.2 26.3522 42.996 25.9442 42.588C25.5362 42.18 25.3322 41.652 25.3322 41.004V18.936C25.3322 18.312 25.5362 17.796 25.9442 17.388C26.3522 16.956 26.8682 16.74 27.4922 16.74C28.1162 16.74 28.6322 16.956 29.0402 17.388C29.4482 17.796 29.6522 18.312 29.6522 18.936V19.08C30.2282 18.36 31.0322 17.736 32.0642 17.208C33.0962 16.656 34.1762 16.38 35.3042 16.38ZM34.7642 32.4C36.3002 32.4 37.5602 31.824 38.5442 30.672C39.5282 29.52 40.0202 28.08 40.0202 26.352C40.0202 24.624 39.5282 23.196 38.5442 22.068C37.5842 20.916 36.3242 20.34 34.7642 20.34C33.2042 20.34 31.9322 20.916 30.9482 22.068C29.9642 23.196 29.4722 24.624 29.4722 26.352C29.4722 28.08 29.9642 29.52 30.9482 30.672C31.9322 31.824 33.2042 32.4 34.7642 32.4ZM57.7339 16.38C59.3899 16.38 60.8899 16.812 62.2339 17.676C63.5779 18.516 64.6339 19.692 65.4019 21.204C66.1939 22.716 66.5899 24.432 66.5899 26.352C66.5899 28.272 66.2059 30 65.4379 31.536C64.6699 33.048 63.6139 34.236 62.2699 35.1C60.9499 35.94 59.4859 36.36 57.8779 36.36C56.7259 36.36 55.6339 36.132 54.6019 35.676C53.5939 35.196 52.7539 34.62 52.0819 33.948V41.004C52.0819 41.628 51.8779 42.144 51.4699 42.552C51.0619 42.984 50.5459 43.2 49.9219 43.2C49.2979 43.2 48.7819 42.996 48.3739 42.588C47.9659 42.18 47.7619 41.652 47.7619 41.004V18.936C47.7619 18.312 47.9659 17.796 48.3739 17.388C48.7819 16.956 49.2979 16.74 49.9219 16.74C50.5459 16.74 51.0619 16.956 51.4699 17.388C51.8779 17.796 52.0819 18.312 52.0819 18.936V19.08C52.6579 18.36 53.4619 17.736 54.4939 17.208C55.5259 16.656 56.6059 16.38 57.7339 16.38ZM57.1939 32.4C58.7299 32.4 59.9899 31.824 60.9739 30.672C61.9579 29.52 62.4499 28.08 62.4499 26.352C62.4499 24.624 61.9579 23.196 60.9739 22.068C60.0139 20.916 58.7539 20.34 57.1939 20.34C55.6339 20.34 54.3619 20.916 53.3779 22.068C52.3939 23.196 51.9019 24.624 51.9019 26.352C51.9019 28.08 52.3939 29.52 53.3779 30.672C54.3619 31.824 55.6339 32.4 57.1939 32.4ZM78.6516 36.36C76.9236 36.36 75.3876 36.144 74.0436 35.712C72.6996 35.28 71.4396 34.548 70.2636 33.516C69.6156 32.94 69.2916 32.304 69.2916 31.608C69.2916 31.056 69.4956 30.576 69.9036 30.168C70.3116 29.736 70.8036 29.52 71.3796 29.52C71.8356 29.52 72.2436 29.664 72.6036 29.952C73.5636 30.744 74.4996 31.32 75.4116 31.68C76.3236 32.04 77.4036 32.22 78.6516 32.22C79.9956 32.22 81.1476 31.92 82.1076 31.32C83.0916 30.72 83.5836 29.976 83.5836 29.088C83.5836 28.008 83.1036 27.168 82.1436 26.568C81.1836 25.944 79.6596 25.476 77.5716 25.164C72.3156 24.396 69.6876 21.948 69.6876 17.82C69.6876 16.308 70.0836 15 70.8756 13.896C71.6676 12.768 72.7476 11.916 74.1156 11.34C75.4836 10.74 77.0076 10.44 78.6876 10.44C80.1996 10.44 81.6156 10.668 82.9356 11.124C84.2796 11.58 85.3956 12.18 86.2836 12.924C86.9796 13.476 87.3276 14.112 87.3276 14.832C87.3276 15.384 87.1236 15.876 86.7156 16.308C86.3076 16.716 85.8276 16.92 85.2756 16.92C84.9156 16.92 84.5916 16.812 84.3036 16.596C83.6796 16.092 82.8036 15.636 81.6756 15.228C80.5716 14.796 79.5756 14.58 78.6876 14.58C77.1756 14.58 75.9996 14.868 75.1596 15.444C74.3436 15.996 73.9356 16.728 73.9356 17.64C73.9356 18.672 74.3556 19.452 75.1956 19.98C76.0596 20.508 77.4036 20.94 79.2276 21.276C81.2916 21.636 82.9356 22.104 84.1596 22.68C85.4076 23.232 86.3436 24 86.9676 24.984C87.5916 25.944 87.9036 27.228 87.9036 28.836C87.9036 30.348 87.4716 31.68 86.6076 32.832C85.7676 33.96 84.6396 34.836 83.2236 35.46C81.8076 36.06 80.2836 36.36 78.6516 36.36ZM110.176 26.388C110.176 28.308 109.744 30.036 108.88 31.572C108.016 33.084 106.828 34.26 105.316 35.1C103.828 35.94 102.184 36.36 100.384 36.36C98.56 36.36 96.904 35.94 95.416 35.1C93.928 34.26 92.752 33.084 91.888 31.572C91.024 30.036 90.592 28.308 90.592 26.388C90.592 24.468 91.024 22.752 91.888 21.24C92.752 19.704 93.928 18.516 95.416 17.676C96.904 16.812 98.56 16.38 100.384 16.38C102.184 16.38 103.828 16.812 105.316 17.676C106.828 18.516 108.016 19.704 108.88 21.24C109.744 22.752 110.176 24.468 110.176 26.388ZM105.856 26.388C105.856 25.212 105.604 24.168 105.1 23.256C104.62 22.32 103.96 21.6 103.12 21.096C102.304 20.592 101.392 20.34 100.384 20.34C99.376 20.34 98.452 20.592 97.612 21.096C96.796 21.6 96.136 22.32 95.632 23.256C95.152 24.168 94.912 25.212 94.912 26.388C94.912 27.564 95.152 28.608 95.632 29.52C96.136 30.432 96.796 31.14 97.612 31.644C98.452 32.148 99.376 32.4 100.384 32.4C101.392 32.4 102.304 32.148 103.12 31.644C103.96 31.14 104.62 30.432 105.1 29.52C105.604 28.608 105.856 27.564 105.856 26.388ZM124.081 16.38C126.529 16.38 128.221 17.112 129.157 18.576C130.093 20.016 130.561 22.02 130.561 24.588V33.804C130.561 34.428 130.357 34.956 129.949 35.388C129.541 35.796 129.025 36 128.401 36C127.777 36 127.261 35.796 126.853 35.388C126.445 34.956 126.241 34.428 126.241 33.804V24.588C126.241 23.268 125.965 22.236 125.413 21.492C124.861 20.724 123.913 20.34 122.569 20.34C121.177 20.34 120.085 20.748 119.293 21.564C118.501 22.356 118.105 23.364 118.105 24.588V33.804C118.105 34.428 117.901 34.956 117.493 35.388C117.085 35.796 116.569 36 115.945 36C115.321 36 114.805 35.796 114.397 35.388C113.989 34.956 113.785 34.428 113.785 33.804V18.936C113.785 18.312 113.989 17.796 114.397 17.388C114.805 16.956 115.321 16.74 115.945 16.74C116.569 16.74 117.085 16.956 117.493 17.388C117.901 17.796 118.105 18.312 118.105 18.936V19.548C118.753 18.684 119.593 17.94 120.625 17.316C121.681 16.692 122.833 16.38 124.081 16.38Z" fill="white"/>
</svg>
